<svg version="1.1" id="Layer_1" xmlns="http://www.w3.org/2000/svg" xmlns:xlink="http://www.w3.org/1999/xlink" x="0px" y="0px"
	 width="100%" viewBox="0 0 688 688" enable-background="new 0 0 688 688" xml:space="preserve">
<path fill="#000000" opacity="1.000000" stroke="none" 
	d="
M341.983398,243.950928 
	C348.329346,246.978653 354.307343,249.910828 360.355774,252.689713 
	C363.420715,254.097839 365.490723,256.324524 366.700775,259.388885 
	C372.079010,273.009003 378.008270,286.390747 384.211334,299.649628 
	C385.863312,303.180634 386.107574,306.642456 384.917023,310.290009 
	C373.824066,344.275940 362.764343,378.272766 351.623444,412.242981 
	C349.428070,418.936859 347.521210,419.674469 341.474854,416.231598 
	C336.045227,413.139923 330.774567,413.188782 325.342987,416.098236 
	C318.741486,419.634399 316.930878,418.948517 314.607941,411.657318 
	C306.984589,387.728973 299.683014,363.695496 291.799225,339.854034 
	C288.463928,329.767731 284.725250,319.809082 281.539856,309.660889 
	C280.585510,306.620392 280.666687,304.035156 281.992676,301.050507 
	C288.003479,287.520660 293.824219,273.904541 299.544403,260.248688 
	C301.055328,256.641541 303.378021,254.178345 306.848602,252.494263 
	C313.435455,249.297958 320.174805,246.320801 326.416595,242.536423 
	C332.120300,239.078308 336.795746,240.700073 341.983398,243.950928 
z"/>
<path fill="#000000" opacity="1.000000" stroke="none" 
	d="
M176.046036,366.861664 
	C170.200150,354.283478 164.588470,342.012360 158.795929,329.827240 
	C156.810425,325.650574 156.546799,321.724579 158.240601,317.341400 
	C164.062012,302.276886 169.632797,287.115692 175.343018,272.007935 
	C177.276947,266.891266 176.789200,265.514648 171.345703,264.246338 
	C159.521545,261.491364 147.670578,258.829010 135.766678,256.448242 
	C129.891937,255.273300 126.586609,252.055054 124.467537,246.524475 
	C114.519669,220.561401 104.366707,194.676239 94.147202,168.818512 
	C92.141853,163.744522 92.196411,159.454163 95.636955,154.847107 
	C118.960693,123.615456 142.225159,92.337837 165.260788,60.893402 
	C177.558350,44.106819 190.872040,28.034687 201.537048,10.074972 
	C202.340256,8.722377 203.292816,7.145157 205.393478,7.515938 
	C206.551804,9.245025 205.653336,10.817731 204.908951,12.230906 
	C197.522507,26.253475 192.167557,41.176720 185.647385,55.582481 
	C184.172256,58.841656 182.310974,61.500957 179.404037,63.758518 
	C170.491943,70.679764 165.293961,80.421036 160.002151,90.109459 
	C148.347290,111.447586 136.628647,132.753403 124.655289,153.913544 
	C121.067421,160.254257 120.449081,166.203568 123.384491,172.900391 
	C130.938934,190.134995 138.324738,207.445374 145.563232,224.814957 
	C146.947006,228.135452 148.949326,229.732346 152.367218,230.433746 
	C166.545578,233.343414 180.682068,236.456314 194.843277,239.450455 
	C205.913635,241.791061 212.520126,253.299545 208.403687,264.130188 
	C205.393173,272.051056 201.443665,279.611023 198.039825,287.387482 
	C193.766373,297.150696 189.675781,306.993958 185.399429,316.755859 
	C183.435852,321.238281 183.127304,325.490143 184.967209,330.227570 
	C188.702332,339.844757 191.911621,349.665192 195.409607,359.375946 
	C196.485794,362.363464 197.831406,365.317566 200.197159,367.491211 
	C207.618134,374.309479 211.475845,383.128387 214.054565,392.518524 
	C224.010132,428.771088 233.806976,465.067383 243.581161,501.369385 
	C244.848618,506.076752 248.228378,510.324768 247.006027,515.686462 
	C244.645203,516.003967 244.090988,514.270264 243.418915,512.817871 
	C221.387421,465.207458 199.372574,417.589294 177.360962,369.969696 
	C176.942093,369.063446 176.591690,368.125580 176.046036,366.861664 
z"/>
<path fill="#000000" opacity="1.000000" stroke="none" 
	d="
M476.984314,27.050016 
	C507.970093,69.024605 538.637878,110.790955 569.631042,152.314362 
	C574.167542,158.392212 574.788635,163.501282 571.901123,170.543839 
	C561.606689,195.652206 551.899841,221.003769 542.174316,246.341446 
	C539.993286,252.023468 536.547791,255.314926 530.454773,256.466827 
	C519.340088,258.567993 508.321289,261.173401 497.252869,263.522919 
	C490.078552,265.045868 489.360870,266.424774 492.000000,273.422791 
	C497.228943,287.288116 502.228760,301.242798 507.667175,315.024811 
	C509.994171,320.921967 509.564758,326.268372 506.969788,331.856049 
	C497.291138,352.696533 487.783508,373.616425 478.117004,394.462616 
	C462.774689,427.548920 447.347473,460.595825 431.977600,493.669373 
	C428.964142,500.153870 425.361969,506.363007 422.966553,513.141296 
	C422.490387,514.488647 421.747162,515.924988 419.838379,516.042297 
	C418.092743,514.684631 419.005524,513.052673 419.486267,511.562775 
	C428.178833,484.623962 434.830933,457.108734 442.563416,429.898956 
	C446.702179,415.334991 450.687866,400.726837 454.636017,386.109833 
	C455.883453,381.491364 457.966431,377.518677 461.433807,374.138489 
	C467.925018,367.810455 471.511230,359.708862 474.478516,351.349091 
	C477.429474,343.035309 480.004578,334.588257 482.945099,326.270599 
	C484.028961,323.204742 482.831573,320.691467 481.735199,318.138824 
	C474.111572,300.388855 467.105469,282.323456 458.451904,265.086914 
	C454.044098,256.307404 460.934143,242.231339 470.116516,240.265854 
	C477.919861,238.595581 485.796783,237.272064 493.624725,235.712845 
	C500.150787,234.412903 506.645935,232.958313 513.168518,231.640152 
	C517.215576,230.822281 519.968445,228.787918 521.602905,224.772446 
	C529.011536,206.570175 536.583923,188.434097 544.184875,170.310883 
	C545.886841,166.252930 546.392883,162.480362 544.102173,158.388397 
	C528.888794,131.211990 514.859985,103.373672 498.585541,76.791656 
	C495.178528,71.226784 491.083038,66.171913 485.563812,62.470039 
	C483.989807,61.414307 482.890747,59.926605 482.148254,58.240913 
	C475.569733,43.304989 469.029114,28.352339 462.504822,13.392628 
	C462.258789,12.828545 462.293945,12.141869 462.195801,11.497487 
	C465.422852,11.257279 465.422852,11.257279 476.984314,27.050016 
z"/>
<path fill="#000000" opacity="1.000000" stroke="none" 
	d="
M192.570251,148.516357 
	C190.200211,154.783890 187.987747,160.707840 185.792816,166.638275 
	C182.712814,174.960052 186.588760,181.919006 195.422882,183.546143 
	C214.062744,186.979416 232.709015,190.386108 251.395096,193.553391 
	C255.325699,194.219620 258.025543,195.795090 260.308075,199.069061 
	C267.090027,208.796722 272.197723,219.489792 278.299255,229.605637 
	C280.502411,233.258301 279.019714,237.006180 277.408722,240.595413 
	C266.023834,265.960449 254.866440,291.430359 243.191422,316.660858 
	C239.415939,324.819916 238.758316,332.411682 241.104416,341.185669 
	C250.123917,374.916687 258.527771,408.812714 267.085236,442.666382 
	C267.923859,445.984070 269.062531,449.304169 271.433929,451.530975 
	C280.323120,459.878113 282.775665,470.624451 284.313385,482.092957 
	C287.582031,506.470520 291.440460,530.768677 294.770630,555.138611 
	C295.458191,560.170288 297.418213,565.327576 295.697327,570.717102 
	C293.052002,570.070679 293.096405,568.149292 292.605804,566.705444 
	C277.771667,523.051514 262.956055,479.391296 248.170135,435.721008 
	C236.641464,401.670898 225.197067,367.592133 213.596664,333.566559 
	C212.239136,329.584717 212.241516,326.227966 213.950668,322.176849 
	C225.015625,295.950134 235.770462,269.592010 246.531769,243.238098 
	C251.104919,232.038651 245.404251,222.339371 232.501175,219.388397 
	C225.533752,217.794952 218.454071,216.698517 211.464264,215.195450 
	C200.087921,212.749084 188.763748,210.057053 177.372803,207.683533 
	C174.263062,207.035568 172.387772,205.478775 171.048904,202.722595 
	C166.147018,192.631683 163.691513,181.689713 159.988434,171.183777 
	C158.970734,168.296478 160.317154,165.677094 162.039551,163.270584 
	C182.394440,134.831177 202.721313,106.371727 223.077423,77.933205 
	C224.286987,76.243378 225.170853,74.047768 227.788025,74.036041 
	C228.016739,74.356308 228.410660,74.691307 228.349152,74.852547 
	C222.900787,89.131874 219.764664,104.242744 212.883987,118.003662 
	C210.258850,123.253784 206.849426,127.945267 202.721466,132.140350 
	C198.207336,136.727844 195.402023,142.417374 192.570251,148.516357 
z"/>
<path fill="#000000" opacity="1.000000" stroke="none" 
	d="
M502.742065,160.406296 
	C506.645874,165.143356 506.850983,169.976791 504.943420,175.249207 
	C502.227966,182.754791 499.665405,190.318375 497.183228,197.904861 
	C495.247131,203.822266 491.526123,207.334320 485.265137,208.587646 
	C467.973694,212.048996 450.754120,215.867996 433.472473,219.379776 
	C421.963135,221.718552 415.771973,232.063232 420.169525,243.089264 
	C426.756683,259.605225 433.764801,275.956055 440.776489,292.298737 
	C444.510468,301.001831 447.230103,310.097504 451.508820,318.598511 
	C455.083771,325.701263 453.099640,333.072174 450.809692,340.015442 
	C442.157471,366.249603 433.180695,392.376587 424.370239,418.558777 
	C414.553223,447.732117 404.850250,476.944000 394.973419,506.097046 
	C388.031342,526.587585 380.889740,547.010620 373.809174,567.454102 
	C373.228363,569.130981 372.637695,570.918640 370.103241,571.490784 
	C368.971497,566.228455 371.215332,561.560425 371.814911,556.782227 
	C373.903656,540.135803 376.265442,523.522278 378.658691,506.915741 
	C380.624817,493.273224 382.749939,479.653168 384.906219,466.039246 
	C385.130310,464.624481 385.697052,462.941925 386.693817,462.021393 
	C396.664032,452.814392 400.177795,440.580933 403.295349,428.007477 
	C411.020569,396.850861 418.950500,365.744751 426.888397,334.641357 
	C428.055206,330.069489 427.653656,325.959656 425.695343,321.607880 
	C412.918976,293.216187 400.360199,264.726624 387.626190,236.315720 
	C386.583344,233.989105 386.978210,232.171783 388.128693,230.224640 
	C393.890503,220.472992 399.576385,210.675278 405.449707,200.991226 
	C408.252777,196.369400 412.934845,194.641724 418.010468,193.690582 
	C435.500397,190.413116 452.998108,187.173462 470.460327,183.753418 
	C480.690887,181.749741 484.555511,174.171005 480.232025,164.801315 
	C475.494171,154.533600 471.986176,143.671722 465.652161,134.173141 
	C463.994232,131.686844 462.416351,128.950226 460.169983,127.092384 
	C454.748810,122.608894 452.057556,116.688026 450.065186,110.257484 
	C446.813934,99.763763 443.570282,89.267677 440.337860,78.768135 
	C440.003754,77.682823 439.399536,76.593849 440.822998,74.126488 
	C461.627747,103.116486 482.076477,131.610458 502.742065,160.406296 
z"/>
<path fill="#000000" opacity="1.000000" stroke="none" 
	d="
M329.887939,225.761673 
	C326.248291,226.757828 323.438446,228.594589 320.442993,230.039490 
	C315.112213,232.610901 312.217865,231.863815 309.062012,226.899429 
	C303.791473,218.608582 298.733887,210.182495 293.473633,201.884964 
	C291.128723,198.186111 291.776001,195.360535 295.333862,192.981934 
	C302.538116,188.165649 309.504517,183.028473 316.170532,177.484909 
	C318.652252,175.421066 321.241364,175.238815 323.926880,177.215317 
	C330.675110,182.181885 337.371124,182.413116 344.023895,176.970886 
	C346.112885,175.262009 348.285675,175.407761 350.431885,177.001663 
	C357.786713,182.463776 365.178497,187.876465 372.504272,193.377167 
	C375.179901,195.386215 375.583282,197.825821 373.749451,200.790421 
	C368.056335,209.994049 362.361023,219.200577 356.914612,228.550446 
	C354.719360,232.319046 352.190765,233.418594 348.348053,231.282425 
	C346.459656,230.232651 344.485199,229.328384 342.646179,228.200897 
	C338.811127,225.849640 334.781403,224.633026 329.887939,225.761673 
z"/>
</svg>